<svg width="21" height="20" viewBox="0 0 21 20" fill="none" xmlns="http://www.w3.org/2000/svg">
<path d="M5.13867 3.88103C5.45292 3.7956 5.78358 3.75 6.12488 3.75H14.8749C15.2162 3.75 15.5468 3.7956 15.8611 3.88103C15.4505 3.06211 14.6033 2.5 13.6249 2.5H7.37488C6.39642 2.5 5.54925 3.06211 5.13867 3.88103Z" fill="#999999"/>
<path d="M2.375 10C2.375 8.61929 3.49429 7.5 4.875 7.5H16.125C17.5057 7.5 18.625 8.61929 18.625 10V15C18.625 16.3807 17.5057 17.5 16.125 17.5H4.875C3.49429 17.5 2.375 16.3807 2.375 15V10Z" fill="#999999"/>
<path d="M4.87488 6.25C4.53358 6.25 4.20292 6.2956 3.88867 6.38103C4.29925 5.56211 5.14642 5 6.12488 5H14.8749C15.8533 5 16.7005 5.56211 17.1111 6.38103C16.7968 6.2956 16.4662 6.25 16.1249 6.25H4.87488Z" fill="#999999"/>
</svg>
